<?xml version="1.0" encoding="utf-8"?>
<!-- Generator: Adobe Illustrator 17.0.0, SVG Export Plug-In . SVG Version: 6.00 Build 0)  -->
<!DOCTYPE svg PUBLIC "-//W3C//DTD SVG 1.1//EN" "http://www.w3.org/Graphics/SVG/1.1/DTD/svg11.dtd">
<svg version="1.1" id="Layer_1" xmlns="http://www.w3.org/2000/svg" xmlns:xlink="http://www.w3.org/1999/xlink" x="0px" y="0px"
	 width="792px" height="612px" viewBox="0 0 792 612" enable-background="new 0 0 792 612" xml:space="preserve">
<g>
	<polygon id="frontleg" fill="none" stroke="#000000" stroke-miterlimit="10" points="419.675,288.542 413.617,289.818 
		406.921,291.093 402.457,294.92 398.312,299.384 394.804,303.848 390.659,309.268 387.471,315.008 385.557,322.341 
		383.644,330.632 383.325,338.922 383.644,346.256 385.557,352.952 388.108,360.604 391.935,366.981 396.08,370.808 
		401.819,375.272 406.921,378.46 412.979,381.649 419.356,384.518 425.733,386.432 432.429,387.707 439.763,387.707 
		446.778,387.707 452.517,388.026 458.257,388.026 464.634,388.664 469.417,390.258 474.519,391.852 480.577,393.446 
		486.635,394.722 493.331,396.954 498.433,398.548 503.853,399.824 508.636,401.737 511.506,406.201 509.593,410.984 
		502.897,412.578 500.665,417.68 503.535,423.1 507.68,426.608 512.781,430.115 517.564,433.941 521.709,437.13 527.449,439.043 
		531.275,436.811 533.507,432.985 531.913,426.289 530.637,421.187 529.681,415.129 529.362,409.07 529.362,403.012 530,396.635 
		528.087,389.939 524.579,385.156 520.115,382.286 514.376,380.692 507.361,378.46 501.621,376.228 495.882,374.315 
		491.418,371.445 487.592,367.3 486.635,361.88 487.592,356.14 487.273,349.763 487.273,344.024 486.316,338.284 485.36,331.907 
		483.128,325.211 480.258,319.153 477.069,313.413 472.605,308.63 468.46,303.529 463.677,299.384 458.257,296.195 452.517,293.325 
		445.821,290.456 438.807,289.18 432.111,288.224 424.777,287.905 	"/>
	<polygon id="backleg" fill="none" stroke="#000000" stroke-miterlimit="10" points="262.16,280.89 255.783,282.165 
		249.405,284.716 243.347,287.905 238.245,291.412 234.419,294.601 229.636,300.021 225.81,304.166 223.578,307.674 
		221.346,312.776 219.752,317.877 219.433,323.617 219.114,329.356 219.114,335.096 220.273,340.547 221.984,346.256 
		223.897,351.995 225.491,357.097 228.042,362.836 229.955,368.894 231.549,375.59 232.506,381.968 233.144,388.026 
		230.912,394.084 227.723,398.229 224.216,401.418 219.752,403.012 212.737,403.012 206.679,401.418 200.301,400.142 195.2,399.824 
		191.373,402.693 192.649,407.476 193.924,413.534 195.2,417.361 196.794,421.506 198.707,427.245 200.62,432.985 203.171,437.449 
		208.273,440.956 212.418,439.043 215.607,433.622 218.476,429.158 222.621,426.608 227.723,423.419 232.825,420.549 
		237.608,417.998 241.434,415.766 245.898,413.216 250.681,410.346 254.188,406.838 256.101,401.418 257.696,395.997 
		260.884,391.533 265.029,387.388 268.218,384.518 272.044,381.968 276.827,380.054 281.929,377.822 287.349,375.272 
		291.813,371.764 295.64,367.938 299.147,363.155 302.655,357.734 305.205,351.995 307.437,345.618 309.669,340.197 311.901,333.82 
		312.539,327.124 312.539,320.747 310.945,312.776 308.713,305.442 305.205,299.384 301.06,293.644 296.277,289.499 
		291.495,285.992 285.436,282.803 280.972,281.528 275.552,280.252 269.812,279.614 	"/>
	<polygon id="head" fill="none" stroke="#000000" stroke-miterlimit="10" points="402.776,287.586 406.602,286.948 411.704,286.31 
		417.443,285.354 422.545,285.354 427.647,285.354 433.386,285.354 438.488,285.992 443.271,286.629 448.053,287.586 
		452.836,290.456 456.025,292.05 458.895,293.325 461.764,294.92 464.634,297.47 468.46,302.253 467.185,299.065 467.185,294.282 
		466.866,289.499 468.141,283.76 469.417,278.977 472.287,274.513 474.519,270.049 478.664,268.136 482.809,266.222 
		487.273,265.266 492.056,265.266 496.839,265.904 501.303,267.817 505.129,269.73 508.636,271.962 511.825,274.513 
		515.651,277.701 519.477,281.846 522.985,285.673 526.173,286.31 528.724,283.122 532.869,282.803 536.377,282.484 
		540.522,282.165 544.986,279.933 548.493,276.745 551.363,273.556 553.595,269.092 554.552,264.309 552.957,260.164 551.044,255.7 
		548.175,251.555 545.305,247.41 542.435,242.627 539.565,238.801 537.652,234.974 534.783,230.829 532.551,226.684 
		529.681,221.582 527.13,217.437 526.811,212.973 526.811,208.509 524.26,203.726 521.391,199.9 518.84,195.436 515.651,192.566 
		513.1,189.697 510.868,184.595 509.912,180.45 509.593,175.667 508.636,170.246 506.085,165.782 501.94,165.464 497.157,165.782 
		491.418,167.696 486.954,170.246 482.49,174.073 478.026,179.174 474.519,177.58 470.055,177.58 463.996,178.218 457.938,180.45 
		452.517,183.001 446.14,185.552 440.72,189.059 435.618,192.248 431.792,196.393 427.647,200.538 423.82,205.321 420.632,211.06 
		416.805,215.205 414.573,220.307 412.341,226.046 409.791,232.424 407.877,237.844 405.645,245.178 405.008,249.961 403.413,255.7 
		402.138,261.44 400.544,268.136 399.906,272.918 399.587,277.382 398.949,283.441 399.268,288.224 	"/>
</g>
</svg>
