<?xml version="1.0" encoding="utf-8"?>
<!-- Generator: Adobe Illustrator 17.0.0, SVG Export Plug-In . SVG Version: 6.00 Build 0)  -->
<!DOCTYPE svg PUBLIC "-//W3C//DTD SVG 1.1//EN" "http://www.w3.org/Graphics/SVG/1.1/DTD/svg11.dtd">
<svg version="1.1" id="Layer_1" xmlns="http://www.w3.org/2000/svg" xmlns:xlink="http://www.w3.org/1999/xlink" x="0px" y="0px"
	 width="792px" height="612px" viewBox="0 0 792 612" enable-background="new 0 0 792 612" xml:space="preserve">
<polygon id="frontleg" fill="none" stroke="#000000" stroke-miterlimit="10" points="321.148,287.905 313.814,288.224 307.118,289.18 
	300.104,290.456 293.408,293.325 287.668,296.195 282.248,299.384 277.465,303.529 273.32,308.63 268.856,313.413 265.667,319.153 
	262.797,325.211 260.565,331.907 259.609,338.284 258.652,344.024 258.652,349.763 258.333,356.14 259.29,361.88 258.333,367.3 
	254.507,371.445 250.043,374.315 244.304,376.228 238.564,378.46 231.549,380.692 225.81,382.286 221.346,385.156 217.838,389.939 
	215.925,396.635 216.563,403.012 216.563,409.07 216.244,415.129 215.288,421.187 214.012,426.289 212.418,432.985 214.65,436.811 
	218.476,439.043 224.216,437.13 228.361,433.941 233.144,430.115 238.245,426.608 242.39,423.1 245.26,417.68 243.028,412.578 
	236.332,410.984 234.419,406.201 237.289,401.737 242.072,399.824 247.492,398.548 252.594,396.954 259.29,394.722 265.348,393.446 
	271.406,391.852 276.508,390.258 281.291,388.664 287.668,388.026 293.408,388.026 299.147,387.707 306.162,387.707 
	313.496,387.707 320.192,386.432 326.569,384.518 332.946,381.649 339.004,378.46 344.106,375.272 349.845,370.808 353.99,366.981 
	357.817,360.604 360.368,352.952 362.281,346.256 362.6,338.922 362.281,330.632 360.368,322.341 358.454,315.008 355.266,309.268 
	351.121,303.848 347.613,299.384 343.468,294.92 339.004,291.093 332.308,289.818 326.25,288.542 "/>
<polygon id="backleg" fill="none" stroke="#000000" stroke-miterlimit="10" points="476.113,279.614 470.373,280.252 464.953,281.528 
	460.489,282.803 454.43,285.992 449.648,289.499 444.865,293.644 440.72,299.384 437.212,305.442 434.98,312.776 433.386,320.747 
	433.386,327.124 434.024,333.82 436.256,340.197 438.488,345.618 440.72,351.995 443.27,357.734 446.778,363.155 450.285,367.938 
	454.112,371.764 458.576,375.272 463.996,377.822 469.098,380.054 473.881,381.968 477.707,384.518 480.896,387.388 
	485.041,391.533 488.229,395.997 489.824,401.418 491.737,406.838 495.244,410.346 500.027,413.216 504.491,415.766 
	508.317,417.998 513.1,420.549 518.202,423.419 523.304,426.608 527.449,429.158 530.318,433.622 533.507,439.043 537.652,440.956 
	542.754,437.449 545.305,432.985 547.218,427.245 549.131,421.506 550.725,417.361 552.001,413.534 553.276,407.476 
	554.552,402.693 550.725,399.824 545.624,400.142 539.246,401.418 533.188,403.012 526.173,403.012 521.709,401.418 
	518.202,398.229 515.013,394.084 512.781,388.026 513.419,381.968 514.376,375.59 515.97,368.894 517.883,362.836 520.434,357.097 
	522.028,351.995 523.941,346.256 525.652,340.547 526.811,335.096 526.811,329.356 526.492,323.617 526.173,317.877 
	524.579,312.776 522.347,307.674 520.115,304.166 516.289,300.021 511.506,294.601 507.68,291.412 502.578,287.905 496.52,284.716 
	490.142,282.165 483.765,280.89 "/>
<polygon id="head" fill="none" stroke="#000000" stroke-miterlimit="10" points="346.657,288.224 346.976,283.441 346.338,277.382 
	346.019,272.918 345.381,268.136 343.787,261.44 342.512,255.7 340.917,249.961 340.28,245.178 338.048,237.844 336.134,232.424 
	333.584,226.046 331.352,220.307 329.12,215.205 325.293,211.06 322.105,205.321 318.278,200.538 314.133,196.393 310.307,192.248 
	305.205,189.059 299.785,185.552 293.408,183.001 287.987,180.45 281.929,178.218 275.87,177.58 271.406,177.58 267.899,179.174 
	263.435,174.073 258.971,170.246 254.507,167.696 248.768,165.782 243.985,165.464 239.84,165.782 237.289,170.246 236.332,175.667 
	236.013,180.45 235.057,184.595 232.825,189.697 230.274,192.566 227.085,195.436 224.534,199.9 221.665,203.726 219.114,208.509 
	219.114,212.973 218.795,217.437 216.244,221.582 213.374,226.684 211.142,230.829 208.273,234.974 206.36,238.801 203.49,242.627 
	200.62,247.41 197.75,251.555 194.881,255.7 192.968,260.164 191.373,264.309 192.33,269.092 194.562,273.556 197.432,276.745 
	200.939,279.933 205.403,282.165 209.548,282.484 213.056,282.803 217.201,283.122 219.752,286.31 222.94,285.673 226.448,281.846 
	230.274,277.701 234.1,274.513 237.289,271.962 240.796,269.73 244.622,267.817 249.086,265.904 253.869,265.266 258.652,265.266 
	263.116,266.222 267.261,268.136 271.406,270.049 273.638,274.513 276.508,278.977 277.784,283.76 279.059,289.499 278.74,294.282 
	278.74,299.065 277.465,302.253 281.291,297.47 284.161,294.92 287.03,293.325 289.9,292.05 293.089,290.456 297.872,287.586 
	302.654,286.629 307.437,285.992 312.539,285.354 318.278,285.354 323.38,285.354 328.482,285.354 334.221,286.31 339.323,286.948 
	343.149,287.586 "/>
</svg>
